<svg xmlns="http://www.w3.org/2000/svg" xmlns:xlink="http://www.w3.org/1999/xlink" width="150" height="150" viewBox="0 0 150 150" fill="none"><g opacity="1"  transform="translate(0 0)  rotate(0)"><path id="路径 4" fill-rule="evenodd" style="fill:#FF5C00" opacity="1" d="M0 33.33L0 116.67C0 138.89 11.11 150 33.33 150L116.67 150C138.89 150 150 138.89 150 116.67L150 33.33C150 11.11 138.89 0 116.67 0L33.33 0C11.11 0 0 11.11 0 33.33Z"></path><path id="路径 5" fill-rule="evenodd" style="fill:#FFFFFF" opacity="1" d="M31.6133,58.3333c8.63,5.86 9.25,6.35 15.06,11.69c4.49,4.13 3.93,9.86 1.28,17.38c-2.6,7.36 -1.95,4.63 -12.22,25.0997l-14.9,-8.52c0,0 16.6,-13.8497 20.03,-20.1797c3.6,-6.67 -3.99,-10.24 -3.99,-10.24l-11.41,-6.51zM68.2833,43.3733c48.1397,-14.74 50.9397,9.03 50.9397,9.03c0,0 3.16,16.41 0.63,42.17c-2.53,25.7597 -33.5197,16.1897 -33.5197,16.1897l1.69,-7.37l7.16,1.67c13.2797,0.92 11.9797,-11.6297 11.9797,-11.6297v-36.47c0.12,-13.83 -12.0397,-15.27 -33.8297,-6.83l5.07,1.48c-0.44,1.62 -2.09,4.15 -4.19,6.91h29.1697v6.38h-16.4197v7.98h16.3497v6.38h-16.3497v13.38c2.43,-0.84 4.7,-2.08 6.72,-3.67l-1.45,-5.83l7.72,-2.6l6.4197,17.03l-9.4997,4.2597l-1.68,-6.7897c-4.23,3.52 -13.06,8.5997 -28.46,8.1497c-16.45,0.46 -12.23,-20.0497 -12.23,-20.0497l0.43,-0.23h11.54c-0.06,2.63 -1.07,6.93 0.3,9.27c1.13,1.92 4.01,2.25 5.86,2.35c0.21,0.02 0.42,0.02 0.63,0.02v-15.29h-16.76v-6.38h16.76v-7.98h-4.3c-3.77,4.33 -7.21,7.91 -7.21,7.91l-5.07,-4.79c3.6,-4.08 7.2,-10.56 9.41,-14.89c-1.87,0.83 -3.72,1.68 -5.57,2.55c-1.99,2.71 -4.14,5.31 -6.43,7.78c0.1,0.16 -8.26,-5.06 -8.26,-5.06c8.64,-7.97 13.49,-25.07 13.49,-25.07l12.01,3.65c0,0 -0.99,2.51 -3.05,6.39z"></path><path id="路径 6" fill-rule="evenodd" style="fill:#FFE500" opacity="1" d="M30.2083 43.755C30.2083 48.925 34.4083 53.125 39.5883 53.125C44.6483 52.975 48.6783 48.825 48.6783 43.745C48.6783 38.675 44.6483 34.525 39.5883 34.375C34.4083 34.375 30.2083 38.575 30.2083 43.755Z"></path></g></svg>