<svg xmlns="http://www.w3.org/2000/svg" xmlns:xlink="http://www.w3.org/1999/xlink" width="32" height="32" viewBox="0 0 32 32" fill="none"><defs><rect id="path_0" x="0" y="0" width="32" height="32" /></defs><g opacity="1" transform="translate(0 0)  rotate(0 16 16)"><mask id="bg-mask-0" fill="white"><use xlink:href="#path_0"></use></mask><g mask="url(#bg-mask-0)" ><path id="矩形 1" fill-rule="evenodd" style="fill:#FF2442" transform="translate(0 0)  rotate(0 16 16)" opacity="1" d="M7,32L25,32C28.87,32 32,28.87 32,25L32,7C32,3.13 28.87,0 25,0L7,0C3.13,0 0,3.13 0,7L0,25C0,28.87 3.13,32 7,32Z " /><g opacity="1" transform="translate(4 11.795211495794774)  rotate(0 11.999841168983654 4.20688)"><path id="分组 1" fill-rule="evenodd" style="fill:#FFFFFF" transform="translate(0 0)  rotate(0 11.999841168983654 4.20688)" opacity="1" d="M14.9277 6.94376L14.9277 2.09376L15.8977 2.09376L15.8977 0.603764L12.3477 0.603764L12.3477 2.11376L13.3277 2.11376L13.3277 6.93376L11.7577 6.93376L11.0077 8.41376L16.5277 8.41376L16.5277 6.94376L14.9277 6.94376Z M7.73755 8.40016C8.55755 8.40016 9.27755 8.41016 9.98755 8.40016C10.0875 8.39016 10.2176 8.32016 10.2575 8.24016C10.4976 7.82016 10.7076 7.37016 10.9775 6.84016L8.52755 6.84016C8.30755 7.28016 8.04755 7.79016 7.73755 8.40016Z M3.16697 0.000937537L3.16697 7.11094L2.14697 7.11094L3.12697 8.40094L4.05697 8.40094C4.12697 8.40094 4.70697 8.35094 4.69697 7.45094C4.70697 5.12094 4.70697 2.33094 4.70697 0.000937537L3.16697 0.000937537Z M21.7248 5.00094C22.0648 5.00094 22.2548 5.22094 22.2648 5.55094C22.2748 5.95094 22.2648 7.11094 22.2648 7.11094L20.7248 7.10094L21.3148 8.38094L22.7648 8.38094C22.9348 8.37094 23.8248 8.30094 23.8248 7.30094L23.8248 4.61094C23.8248 3.71094 23.2648 3.44094 21.9748 3.45094C21.9748 3.09094 21.9648 2.03094 21.9648 1.70094C21.9548 0.600938 20.8248 0.630938 20.8248 0.630938L19.6048 0.630938L19.5948 0.000937537L18.0548 0.000937537L18.0548 0.630938L17.0448 0.630938L17.0448 2.12094L18.0448 2.12094L18.0448 3.44094L16.5448 3.44094L16.5448 5.01094L18.0848 5.01094L18.0848 8.38094L19.6048 8.38094L19.6048 4.99094C20.3548 4.99094 21.0448 4.98094 21.7248 5.00094Z M0.46 2.15255C0.59 4.18255 0 5.98255 0 6.04255C0.3 6.56255 0.59 7.09255 0.92 7.66255C2.06 6.05255 2.08 2.58255 2.07 2.19255L2.07 2.15255L0.46 2.15255Z M5.80489 2.14224C5.79489 5.00224 6.19489 6.93224 6.92489 7.57224C7.24489 6.64224 7.69489 5.66224 7.69489 5.66224C7.69489 5.66224 7.20489 3.65224 7.32489 2.14224L5.80489 2.14224Z M11.0439 4.08C11.3639 3.44 11.6739 2.81 12.0339 2.1C11.3639 2.13 10.8039 2.16 10.1739 2.2C10.4439 1.49 10.8639 0.75 11.2439 0L9.70387 0C9.25387 0.91 8.78387 1.83 8.36387 2.76C8.10387 3.34 8.31387 3.63 8.95387 3.66C9.17387 3.66 9.39387 3.66 9.69387 3.66C9.59387 3.89 9.51387 4.04 9.45387 4.2C9.24387 4.65 9.02387 5.1 8.84387 5.55C8.68387 5.92 8.84387 6.22 9.23387 6.26C9.77387 6.32 10.3139 6.3 10.8539 6.3C10.9139 6.3 11.0039 6.24 11.0339 6.18C11.2339 5.82 11.4139 5.45 11.6139 5.04C11.4739 5.03 11.4039 5.02 11.3239 5.02C10.5939 5 10.5939 5 10.9239 4.34L11.0439 4.08Z M19.6159 3.44036L20.6359 3.44036L20.6359 2.11036L19.6059 2.11036L19.6159 3.44036Z M22.351 1.37156L22.351 2.15156L23.171 2.15156C23.881 2.15156 24.271 1.29156 23.781 0.771562C23.771 0.761562 23.761 0.741562 23.741 0.731562C23.381 0.391562 23.011 0.501562 22.731 0.671562C22.491 0.831562 22.351 1.09156 22.351 1.37156Z " /></g></g></g></svg>